#!OML:ASF H:\MichaelJackson\Top Level 1\Subject 1\Session 1\male.ASF
:FULLY-SPECIFIED
:DEGREES
653
root 4.98138 16.5264 -4.4519 8.97857 3.30288 -4.27441
lowerback 7.29061 1.22446 4.28973
upperback 2.16834 1.97103 1.55249
thorax -1.754 0.97719 -0.974792
lowerneck -9.02267 -2.64291 1.88598
upperneck -4.02464 -3.68984 0.22513
head 0.209832 -1.86757 -0.340758
rclavicle -2.21645e-014 1.43125e-014
rhumerus -48.5747 -6.04632 -80.2093
rradius 45.5199
rwrist 3.05946
rhand -31.7937 -40.6821
rfingers 7.12502
rthumb -5.04953 -70.602
lclavicle -2.21645e-014 1.43125e-014
lhumerus -38.3951 -9.38558 83.7997
lradius 53.2342
lwrist 1.73345
lhand -11.673 4.83696
lfingers 7.12502
lthumb 14.3721 34.3194
rfemur -37.9631 -2.17208 30.7759
rtibia 38.4714
rfoot -8.18677 8.447
rtoes 25.2146
lfemur -30.4439 11.6348 -14.011
ltibia 87.7841
lfoot -4.11115 -9.90883
ltoes 21.1533
654
root 4.98912 16.5632 -4.27557 8.78203 3.18825 -4.49943
lowerback 7.34398 1.30263 4.38339
upperback 2.15926 2.08659 1.62305
thorax -1.78671 1.03374 -0.96556
lowerneck -8.79159 -2.6516 1.93994
upperneck -3.95657 -3.70186 0.240299
head 0.19242 -1.87378 -0.34202
rclavicle -1.6201e-014 -2.18663e-015
rhumerus -48.6507 -4.5608 -81.1314
rradius 46.8073
rwrist 3.52882
rhand -31.5107 -39.0601
rfingers 7.12502
rthumb -4.77629 -68.9862
lclavicle -1.6201e-014 -2.18663e-015
lhumerus -39.1538 -10.118 84.8106
lradius 51.6602
lwrist 4.26086
lhand -12.263 5.64483
lfingers 7.12502
lthumb 13.8036 35.1669
rfemur -36.8655 -2.23964 30.981
rtibia 38.2113
rfoot -8.70739 8.69328
rtoes 25.386
lfemur -32.1059 11.0309 -13.7201
ltibia 89.0917
lfoot -4.78483 -8.56383
ltoes 21.3082
655
root 4.99944 16.5794 -4.09969 8.61733 3.03897 -4.71732
lowerback 7.33841 1.38926 4.47809
upperback 2.14528 2.20995 1.68042
thorax -1.7907 1.09467 -0.969552
lowerneck -8.54759 -2.65549 2.00889
upperneck -3.85389 -3.70852 0.257609
head 0.183475 -1.87719 -0.345139
rclavicle 4.27387e-015 5.56597e-015
rhumerus -48.8228 -3.06599 -82.0462
rradius 48.2796
rwrist 3.78812
rhand -31.2927 -36.9969
rfingers 7.12502
rthumb -4.56577 -66.9277
lclavicle 4.27387e-015 5.56597e-015
lhumerus -39.927 -10.7567 85.8282
lradius 50.2465
lwrist 6.80024
lhand -12.9257 6.45934
lfingers 7.12502
lthumb 13.1648 36.0237
rfemur -35.8187 -2.27016 31.1704
rtibia 37.903
rfoot -9.17351 8.93161
rtoes 25.4517
lfemur -33.7934 10.42 -13.4784
ltibia 90.1637
lfoot -5.23426 -7.21539
ltoes 22.1488
656
root 5.00981 16.621 -3.92157 8.48518 2.84108 -4.92903
lowerback 7.27687 1.49174 4.57144
upperback 2.12443 2.35072 1.72391
thorax -1.76915 1.16471 -0.98676
lowerneck -8.2984 -2.6569 2.09607
upperneck -3.71508 -3.71326 0.273211
head 0.184537 -1.87952 -0.352074
rclavicle -9.93923e-015 -2.42517e-014
rhumerus -49.085 -1.60611 -82.938
rradius 49.9284
rwrist 3.82598
rhand -31.1169 -34.5979
rfingers 7.12502
rthumb -4.39601 -64.5323
lclavicle -9.93923e-015 -2.42517e-014
lhumerus -40.717 -11.2874 86.8285
lradius 48.9676
lwrist 9.04141
lhand -13.5678 7.15076
lfingers 7.12502
lthumb 12.5459 36.7541
rfemur -34.7148 -2.26192 31.337
rtibia 37.5411
rfoot -9.67693 9.1705
rtoes 25.3704
lfemur -35.3251 9.82839 -13.2817
ltibia 90.7885
lfoot -5.45385 -5.89069
ltoes 23.5807
657
root 5.02083 16.6639 -3.74258 8.37708 2.59383 -5.13188
lowerback 7.17555 1.61324 4.65707
upperback 2.0975 2.51344 1.75135
thorax -1.73004 1.24601 -1.0164
lowerneck -8.05857 -2.66008 2.20138
upperneck -3.53797 -3.72195 0.292125
head 0.198649 -1.88356 -0.361707
rclavicle -2.93704e-014 -4.96962e-015
rhumerus -49.4281 -0.230075 -83.7947
rradius 51.7319
rwrist 3.70474
rhand -30.9791 -31.9876
rfingers 7.12502
rthumb -4.26297 -61.9247
lclavicle -2.93704e-014 -4.96962e-015
lhumerus -41.5285 -11.7109 87.7914
lradius 47.8078
lwrist 10.7515
lhand -14.0947 7.63235
lfingers 7.12502
lthumb 12.0378 37.2661
rfemur -33.5886 -2.20576 31.4836
rtibia 37.1
rfoot -10.152 9.40297
rtoes 25.2082
lfemur -36.7616 9.26832 -13.1214
ltibia 91.0675
lfoot -5.55421 -4.60894
ltoes 25.3535
658
root 5.03237 16.7076 -3.56255 8.28636 2.28937 -5.32164
lowerback 7.04409 1.75494 4.72792
upperback 2.06472 2.69977 1.76416
thorax -1.67865 1.3393 -1.05318
lowerneck -7.83201 -2.66619 2.31788
upperneck -3.32715 -3.73563 0.310712
head 0.225057 -1.88973 -0.374053
rclavicle -5.61567e-015 7.15625e-015
rhumerus -49.8467 1.02735 -84.5982
rradius 53.6677
rwrist 3.50529
rhand -30.822 -29.2461
rfingers 7.12502
rthumb -4.11123 -59.1862
lclavicle -5.61567e-015 7.15625e-015
lhumerus -42.3734 -12.0184 88.7056
lradius 46.7642
lwrist 11.7888
lhand -14.4161 7.91045
lfingers 7.12502
lthumb 11.7278 37.5621
rfemur -32.3965 -2.10196 31.6064
rtibia 36.4944
rfoot -10.5297 9.64142
rtoes 25.007
lfemur -38.0815 8.75446 -12.9975
ltibia 90.9862
lfoot -5.61056 -3.36256
ltoes 27.0944
659
root 5.04374 16.7512 -3.38126 8.19417 1.95163 -5.49281
lowerback 6.90102 1.90732 4.77402
upperback 2.03327 2.8974 1.76724
thorax -1.61917 1.43849 -1.0858
lowerneck -7.63585 -2.67532 2.43762
upperneck -3.08615 -3.75429 0.326325
head 0.265578 -1.89793 -0.388902
rclavicle -7.50412e-015 0
rhumerus -50.3176 2.13471 -85.3263
rradius 55.7265
rwrist 3.28412
rhand -30.4711 -26.5708
rfingers 7.12502
rthumb -3.77242 -56.5172
lclavicle -7.50412e-015 0
lhumerus -43.244 -12.2069 89.5621
lradius 45.8226
lwrist 12.0961
lhand -14.4786 7.98537
lfingers 7.12502
lthumb 11.6676 37.6405
rfemur -31.1747 -1.96688 31.7023
rtibia 35.8516
rfoot -10.878 9.87664
rtoes 24.8219
lfemur -39.2551 8.26876 -12.8999
ltibia 90.5829
lfoot -5.73712 -2.14513
ltoes 28.5744
660
root 5.05552 16.7934 -3.19922 8.10712 1.57336 -5.64964
lowerback 6.74945 2.07139 4.80569
upperback 1.99863 3.10893 1.7625
thorax -1.55755 1.54467 -1.11827
lowerneck -7.4616 -2.68735 2.54995
upperneck -2.83102 -3.7767 0.340505
head 0.314093 -1.90754 -0.403663
rclavicle 2.0276e-014 1.98785e-015
rhumerus -50.8263 3.06737 -85.9651
rradius 57.8802
rwrist 3.03417
rhand -29.8508 -24.1014
rfingers 7.12502
rthumb -3.17342 -54.0576
lclavicle 2.0276e-014 1.98785e-015
lhumerus -44.1511 -12.2862 90.3588
lradius 44.9847
lwrist 11.6826
lhand -14.2654 7.89148
lfingers 7.12502
lthumb 11.8731 37.5348
rfemur -29.9449 -1.7999 31.7735
rtibia 35.197
rfoot -11.1914 10.1298
rtoes 24.7628
lfemur -40.2954 7.82139 -12.8257
ltibia 89.881
lfoot -5.98693 -0.951977
ltoes 29.5904
661
root 5.06696 16.8332 -3.01629 8.01502 1.19193 -5.79078
lowerback 6.60021 2.23331 4.819
upperback 1.95794 3.31676 1.75488
thorax -1.50426 1.64881 -1.14257
lowerneck -7.29215 -2.70274 2.65396
upperneck -2.57671 -3.80286 0.348252
head 0.363099 -1.91882 -0.419211
rclavicle 1.60519e-014 1.78906e-014
rhumerus -51.362 3.79802 -86.5005
rradius 60.1028
rwrist 2.73401
rhand -28.9205 -21.8112
rfingers 7.12502
rthumb -2.27497 -51.7788
lclavicle 1.60519e-014 1.78906e-014
lhumerus -45.0989 -12.2735 91.0992
lradius 44.2388
lwrist 10.6537
lhand -13.8285 7.64904
lfingers 7.12502
lthumb 12.2945 37.2676
rfemur -28.7138 -1.62619 31.8253
rtibia 34.5562
rfoot -11.4861 10.3861
rtoes 24.8103
lfemur -41.2 7.38414 -12.7598
ltibia 88.9017
lfoot -6.37496 0.186541
ltoes 30.0491
662
root 5.078 16.8697 -2.83222 7.91589 0.825348 -5.91616
lowerback 6.44819 2.38479 4.81639
upperback 1.91441 3.50974 1.74736
thorax -1.45397 1.7455 -1.15599
lowerneck -7.12574 -2.71881 2.74579
upperneck -2.33336 -3.82875 0.348093
head 0.409243 -1.92989 -0.435102
rclavicle -4.27387e-015 -1.66979e-014
rhumerus -51.8915 4.30643 -86.9171
rradius 62.3611
rwrist 2.26832
rhand -27.5597 -19.7221
rfingers 7.12502
rthumb -0.960651 -49.6997
lclavicle -4.27387e-015 -1.66979e-014
lhumerus -46.0797 -12.18 91.784
lradius 43.5851
lwrist 9.16074
lhand -13.1945 7.30554
lfingers 7.12502
lthumb 12.9057 36.8865
rfemur -27.4878 -1.45366 31.8581
rtibia 33.9473
rfoot -11.7768 10.6325
rtoes 24.9625
lfemur -41.9755 6.94525 -12.6968
ltibia 87.6666
lfoot -6.87134 1.2476
ltoes 30.053
